<svg id="svg" version="1.1" xmlns="http://www.w3.org/2000/svg" xmlns:xlink="http://www.w3.org/1999/xlink" width="400" height="98.58064516129032" viewBox="0, 0, 400,98.58064516129032"><g id="svgg"><path id="path0" d="M367.387 22.792 C 369.845 22.818,373.820 22.818,376.220 22.792 C 378.620 22.766,376.608 22.744,371.750 22.744 C 366.892 22.744,364.928 22.766,367.387 22.792 M380.967 23.033 C 381.120 23.187,381.167 27.885,381.167 43.167 C 381.167 63.418,381.169 63.512,381.742 63.495 C 381.838 63.492,381.785 63.413,381.625 63.320 C 381.350 63.160,381.333 62.027,381.333 43.255 C 381.333 23.720,381.317 22.833,380.949 22.833 C 380.827 22.833,380.833 22.900,380.967 23.033 M19.667 24.265 C 18.154 24.962,16.603 25.670,16.220 25.839 C 15.837 26.007,15.443 26.295,15.345 26.478 C 15.075 26.984,15.096 69.696,15.367 69.967 C 15.593 70.193,22.435 70.256,22.783 70.035 C 22.933 69.939,22.996 67.281,23.038 59.246 C 23.100 47.464,23.063 47.881,24.209 46.065 C 26.751 42.039,34.185 42.282,36.173 46.457 C 36.955 48.101,36.988 48.611,36.994 59.386 C 36.998 66.043,37.059 69.633,37.173 69.844 C 37.346 70.169,43.797 70.362,44.570 70.066 C 44.969 69.912,44.967 48.169,44.567 45.841 C 44.050 42.834,43.104 40.897,41.264 39.083 C 37.155 35.033,28.785 34.718,24.233 38.441 C 23.638 38.928,23.261 39.104,23.129 38.958 C 23.108 38.935,23.052 35.355,23.004 31.002 C 22.928 24.145,22.883 23.082,22.667 23.042 C 22.529 23.017,21.179 23.567,19.667 24.265 M142.333 23.728 C 141.462 24.126,140.092 24.762,139.288 25.142 C 138.485 25.522,137.784 25.833,137.731 25.833 C 137.678 25.833,137.417 25.988,137.151 26.178 L 136.667 26.523 136.667 48.145 C 136.667 64.740,136.713 69.813,136.867 69.967 C 137.150 70.250,144.017 70.250,144.300 69.967 C 144.449 69.818,144.500 68.056,144.500 63.068 L 144.500 56.368 146.728 54.268 C 147.954 53.112,149.040 52.167,149.143 52.167 C 149.410 52.167,149.879 52.972,151.911 56.917 C 152.903 58.842,154.238 61.429,154.878 62.667 C 155.518 63.904,156.604 66.004,157.290 67.333 C 157.977 68.662,158.657 69.844,158.801 69.958 C 159.218 70.289,166.810 70.254,166.938 69.921 C 166.990 69.786,166.265 68.192,165.327 66.379 C 164.390 64.567,163.117 62.108,162.500 60.917 C 161.882 59.725,160.777 57.587,160.044 56.167 C 159.311 54.746,157.914 52.039,156.939 50.150 C 155.964 48.262,155.167 46.601,155.167 46.459 C 155.167 46.316,157.304 44.158,159.917 41.664 C 162.529 39.169,164.667 37.024,164.667 36.897 C 164.667 36.707,163.901 36.667,160.256 36.667 L 155.846 36.667 150.403 42.042 C 147.409 44.998,144.875 47.417,144.772 47.417 C 144.634 47.417,144.560 44.135,144.497 35.250 C 144.450 28.558,144.394 23.065,144.372 23.042 C 144.251 22.912,143.753 23.080,142.333 23.728 M363.333 25.333 C 363.520 25.700,363.711 26.000,363.757 26.000 C 363.803 26.000,363.687 25.700,363.500 25.333 C 363.313 24.967,363.122 24.667,363.077 24.667 C 363.031 24.667,363.146 24.967,363.333 25.333 M364.833 28.167 C 365.020 28.533,365.211 28.833,365.257 28.833 C 365.303 28.833,365.187 28.533,365.000 28.167 C 364.813 27.800,364.622 27.500,364.577 27.500 C 364.531 27.500,364.646 27.800,364.833 28.167 M369.404 29.625 C 371.628 29.656,372.971 29.740,373.112 29.857 C 373.252 29.974,373.333 29.979,373.333 29.872 C 373.333 29.547,372.782 29.500,369.361 29.538 L 365.917 29.576 369.404 29.625 M257.042 35.788 C 257.385 35.824,257.948 35.824,258.292 35.788 C 258.635 35.752,258.354 35.723,257.667 35.723 C 256.979 35.723,256.698 35.752,257.042 35.788 M296.796 35.789 C 297.188 35.824,297.788 35.824,298.129 35.788 C 298.471 35.752,298.150 35.723,297.417 35.724 C 296.683 35.724,296.404 35.754,296.796 35.789 M336.958 35.789 C 337.348 35.824,337.985 35.824,338.375 35.789 C 338.765 35.754,338.446 35.725,337.667 35.725 C 336.887 35.725,336.569 35.754,336.958 35.789 M67.833 36.089 C 64.582 36.513,62.482 37.188,58.854 38.975 C 57.502 39.641,57.498 39.703,58.597 42.674 C 59.903 46.208,59.667 46.061,62.093 44.847 C 65.756 43.014,67.766 42.558,71.419 42.730 C 75.285 42.913,76.821 44.429,76.967 48.208 L 77.037 50.000 76.607 50.000 C 76.371 50.000,75.932 49.896,75.631 49.770 C 74.646 49.356,73.806 49.131,72.686 48.981 C 69.084 48.498,68.841 48.482,67.724 48.649 C 64.731 49.098,64.286 49.180,63.998 49.335 C 63.828 49.426,63.559 49.500,63.402 49.500 C 63.244 49.500,62.320 49.889,61.349 50.365 C 51.724 55.082,54.168 69.365,64.833 70.735 C 65.246 70.788,66.099 70.908,66.730 71.001 C 67.843 71.166,68.513 71.119,71.333 70.677 C 72.487 70.497,74.086 69.816,75.552 68.883 C 76.846 68.059,77.000 68.078,77.000 69.060 C 77.000 70.167,76.998 70.167,80.861 70.167 C 84.171 70.167,84.330 70.152,84.503 69.827 C 84.844 69.190,84.625 45.676,84.264 44.250 C 82.632 37.789,76.841 34.913,67.833 36.089 M108.750 36.078 C 101.702 37.137,97.102 42.409,96.157 50.508 C 94.621 63.681,102.391 72.503,114.083 70.862 C 119.711 70.072,124.587 66.108,125.416 61.650 L 125.528 61.051 124.472 60.677 C 123.165 60.215,122.539 60.011,120.367 59.337 C 118.386 58.723,118.430 58.709,117.645 60.182 C 115.153 64.858,108.037 64.817,105.433 60.113 C 102.893 55.525,103.581 47.975,106.814 44.950 C 108.281 43.578,109.207 43.262,111.750 43.262 C 114.752 43.263,116.278 44.087,117.568 46.403 C 118.188 47.517,118.147 47.518,121.701 46.335 C 125.932 44.927,125.697 45.183,124.673 43.096 C 121.974 37.592,116.048 34.980,108.750 36.078 M241.708 59.925 C 241.666 83.275,241.667 83.333,242.232 83.333 C 242.323 83.333,242.270 83.240,242.115 83.125 C 241.852 82.931,241.830 81.306,241.791 59.917 L 241.749 36.917 241.708 59.925 M189.815 38.578 C 187.556 39.410,186.338 41.137,186.335 43.515 C 186.327 49.941,196.180 50.343,196.778 43.942 C 197.122 40.253,193.288 37.300,189.815 38.578 M214.200 38.592 C 212.059 39.265,210.508 41.596,210.711 43.834 C 211.234 49.603,219.478 50.342,221.088 44.764 C 222.216 40.858,218.261 37.315,214.200 38.592 M266.667 38.719 C 266.667 38.748,266.910 38.991,267.208 39.260 L 267.750 39.750 267.260 39.208 C 266.804 38.703,266.667 38.590,266.667 38.719 M307.917 39.833 C 308.461 40.383,308.944 40.833,308.990 40.833 C 309.035 40.833,308.628 40.383,308.083 39.833 C 307.539 39.283,307.056 38.833,307.010 38.833 C 306.965 38.833,307.372 39.283,307.917 39.833 M326.245 40.208 L 325.250 41.250 326.292 40.255 C 327.259 39.331,327.410 39.167,327.286 39.167 C 327.261 39.167,326.792 39.635,326.245 40.208 M347.833 39.385 C 347.833 39.414,348.077 39.658,348.375 39.927 L 348.917 40.417 348.427 39.875 C 347.971 39.370,347.833 39.257,347.833 39.385 M285.906 40.208 L 285.417 40.750 285.958 40.260 C 286.463 39.804,286.577 39.667,286.448 39.667 C 286.419 39.667,286.175 39.910,285.906 40.208 M267.833 39.885 C 267.833 39.914,268.077 40.158,268.375 40.427 L 268.917 40.917 268.427 40.375 C 267.971 39.870,267.833 39.757,267.833 39.885 M295.542 42.782 C 295.702 42.823,295.965 42.823,296.125 42.782 C 296.285 42.740,296.154 42.705,295.833 42.705 C 295.512 42.705,295.381 42.740,295.542 42.782 M299.833 43.083 C 300.063 43.214,300.325 43.322,300.417 43.322 C 300.508 43.322,300.396 43.214,300.167 43.083 C 299.938 42.952,299.675 42.845,299.583 42.845 C 299.492 42.845,299.604 42.952,299.833 43.083 M283.113 44.258 C 282.722 45.079,282.777 45.219,283.186 44.443 C 283.372 44.090,283.495 43.772,283.459 43.736 C 283.423 43.700,283.267 43.935,283.113 44.258 M323.360 44.257 C 323.081 44.870,323.134 45.001,323.436 44.444 C 323.577 44.183,323.662 43.939,323.623 43.901 C 323.585 43.863,323.467 44.023,323.360 44.257 M251.708 44.332 C 251.410 44.513,251.167 44.698,251.167 44.742 C 251.167 44.786,251.429 44.667,251.750 44.478 C 252.071 44.289,252.333 44.104,252.333 44.067 C 252.333 43.960,252.281 43.983,251.708 44.332 M291.575 44.708 L 290.917 45.417 291.625 44.758 C 292.015 44.395,292.333 44.077,292.333 44.050 C 292.333 43.923,292.188 44.050,291.575 44.708 M342.000 44.052 C 342.000 44.081,342.244 44.325,342.542 44.594 L 343.083 45.083 342.594 44.542 C 342.138 44.037,342.000 43.923,342.000 44.052 M261.583 45.000 C 261.941 45.367,262.272 45.667,262.318 45.667 C 262.363 45.667,262.108 45.367,261.750 45.000 C 261.392 44.633,261.062 44.333,261.016 44.333 C 260.970 44.333,261.225 44.633,261.583 45.000 M250.324 45.458 L 249.750 46.083 250.375 45.509 C 250.719 45.193,251.000 44.912,251.000 44.884 C 251.000 44.757,250.859 44.877,250.324 45.458 M290.709 45.708 C 290.473 46.006,290.142 46.667,290.228 46.667 C 290.268 46.667,290.455 46.404,290.645 46.083 C 290.989 45.500,291.020 45.315,290.709 45.708 M343.845 46.583 C 343.845 46.675,343.952 46.938,344.083 47.167 C 344.214 47.396,344.322 47.508,344.322 47.417 C 344.322 47.325,344.214 47.063,344.083 46.833 C 343.952 46.604,343.845 46.492,343.845 46.583 M344.492 49.121 C 344.446 49.508,344.472 49.761,344.550 49.684 C 344.627 49.606,344.665 49.289,344.633 48.980 C 344.576 48.431,344.573 48.434,344.492 49.121 M312.042 49.250 C 312.044 49.617,312.078 49.747,312.118 49.540 C 312.158 49.332,312.156 49.032,312.115 48.873 C 312.073 48.714,312.040 48.883,312.042 49.250 M289.333 49.333 C 289.333 49.608,289.395 49.833,289.471 49.833 C 289.547 49.833,289.576 49.608,289.536 49.333 C 289.495 49.058,289.433 48.833,289.398 48.833 C 289.362 48.833,289.333 49.058,289.333 49.333 M352.402 52.167 C 352.402 53.771,352.427 54.427,352.457 53.625 C 352.488 52.823,352.488 51.510,352.457 50.708 C 352.427 49.906,352.402 50.563,352.402 52.167 M293.292 49.958 C 295.240 49.985,298.427 49.985,300.375 49.958 C 302.323 49.931,300.729 49.910,296.833 49.910 C 292.938 49.910,291.344 49.931,293.292 49.958 M321.705 50.333 C 321.705 50.654,321.740 50.785,321.782 50.625 C 321.823 50.465,321.823 50.202,321.782 50.042 C 321.740 49.881,321.705 50.012,321.705 50.333 M333.636 49.958 C 335.590 49.985,338.740 49.985,340.636 49.958 C 342.532 49.931,340.933 49.910,337.083 49.910 C 333.233 49.910,331.682 49.932,333.636 49.958 M264.372 51.167 C 264.372 51.487,264.406 51.619,264.448 51.458 C 264.490 51.298,264.490 51.035,264.448 50.875 C 264.406 50.715,264.372 50.846,264.372 51.167 M281.383 51.500 C 281.383 52.004,281.415 52.210,281.453 51.958 C 281.491 51.706,281.491 51.294,281.453 51.042 C 281.415 50.790,281.383 50.996,281.383 51.500 M272.387 51.833 C 272.387 52.429,272.417 52.673,272.454 52.375 C 272.491 52.077,272.491 51.590,272.454 51.292 C 272.417 50.994,272.387 51.237,272.387 51.833 M321.553 53.333 C 321.553 53.929,321.584 54.173,321.621 53.875 C 321.658 53.577,321.658 53.090,321.621 52.792 C 321.584 52.494,321.553 52.737,321.553 53.333 M272.388 55.083 C 272.389 55.725,272.419 55.967,272.455 55.621 C 272.491 55.275,272.490 54.750,272.454 54.455 C 272.417 54.159,272.387 54.442,272.388 55.083 M281.385 55.250 C 281.386 55.800,281.417 56.005,281.454 55.705 C 281.491 55.406,281.490 54.956,281.452 54.705 C 281.414 54.455,281.384 54.700,281.385 55.250 M312.027 55.196 C 312.012 55.534,311.882 55.927,311.738 56.071 C 311.594 56.215,311.554 56.333,311.649 56.333 C 311.938 56.333,312.191 55.682,312.120 55.117 C 312.054 54.591,312.053 54.592,312.027 55.196 M73.250 55.494 C 77.168 56.461,77.000 56.308,77.000 58.927 L 77.000 60.969 76.139 61.743 C 72.392 65.112,65.198 65.022,63.354 61.582 C 62.047 59.143,63.687 56.346,66.833 55.647 C 67.154 55.576,67.679 55.442,68.000 55.350 C 68.751 55.133,72.169 55.227,73.250 55.494 M321.709 56.417 C 321.711 56.783,321.745 56.914,321.785 56.706 C 321.824 56.499,321.823 56.199,321.781 56.040 C 321.739 55.880,321.707 56.050,321.709 56.417 M289.399 56.569 C 289.349 56.699,289.340 57.018,289.379 57.278 C 289.439 57.676,289.454 57.652,289.475 57.126 L 289.500 56.502 300.458 56.458 L 311.417 56.414 300.453 56.374 C 291.126 56.339,289.476 56.369,289.399 56.569 M329.700 56.533 C 329.590 56.643,329.505 56.850,329.512 56.992 C 329.520 57.170,329.564 57.147,329.653 56.917 C 329.781 56.589,329.978 56.582,340.767 56.498 L 351.750 56.413 340.825 56.373 C 332.505 56.343,329.852 56.381,329.700 56.533 M250.333 61.250 C 250.644 61.571,250.936 61.833,250.982 61.833 C 251.028 61.833,250.811 61.571,250.500 61.250 C 250.189 60.929,249.897 60.667,249.851 60.667 C 249.805 60.667,250.022 60.929,250.333 61.250 M189.250 61.226 C 186.040 62.728,185.302 66.997,187.818 69.511 C 192.525 74.214,199.761 67.742,195.577 62.572 C 194.226 60.905,191.279 60.277,189.250 61.226 M213.670 61.211 C 210.134 62.975,209.668 67.800,212.816 70.058 C 217.992 73.769,224.182 66.926,219.784 62.355 C 218.312 60.826,215.497 60.299,213.670 61.211 M261.592 61.780 C 261.047 62.293,260.747 62.634,260.925 62.536 C 261.242 62.364,262.812 60.827,262.660 60.839 C 262.618 60.843,262.137 61.266,261.592 61.780 M304.321 61.458 L 303.917 61.917 304.333 61.563 C 304.563 61.368,304.862 61.168,305.000 61.118 C 305.214 61.039,305.212 61.024,304.987 61.013 C 304.843 61.006,304.543 61.206,304.321 61.458 M345.167 61.116 C 345.304 61.165,346.017 61.778,346.750 62.477 L 348.083 63.750 346.754 62.375 C 346.023 61.619,345.310 61.006,345.171 61.013 C 344.948 61.025,344.947 61.037,345.167 61.116 M291.167 61.219 C 291.167 61.248,291.410 61.491,291.708 61.760 L 292.250 62.250 291.760 61.708 C 291.304 61.203,291.167 61.090,291.167 61.219 M270.527 62.757 C 270.248 63.370,270.301 63.501,270.603 62.944 C 270.744 62.683,270.828 62.439,270.790 62.401 C 270.752 62.363,270.634 62.523,270.527 62.757 M306.667 62.713 C 306.667 62.738,307.248 63.319,307.958 64.004 L 309.250 65.250 308.004 63.958 C 306.847 62.759,306.667 62.591,306.667 62.713 M255.955 63.620 C 256.250 63.657,256.775 63.658,257.121 63.622 C 257.467 63.586,257.225 63.555,256.583 63.555 C 255.942 63.554,255.659 63.583,255.955 63.620 M390.792 63.666 C 391.156 64.075,391.081 69.769,390.708 69.987 C 390.548 70.080,390.495 70.159,390.592 70.162 C 391.089 70.176,391.167 69.725,391.167 66.820 C 391.167 64.210,391.133 63.849,390.875 63.653 C 390.627 63.466,390.614 63.468,390.792 63.666 M296.875 64.121 C 297.219 64.157,297.781 64.157,298.125 64.121 C 298.469 64.085,298.188 64.056,297.500 64.056 C 296.813 64.056,296.531 64.085,296.875 64.121 M337.208 64.121 C 337.552 64.157,338.115 64.157,338.458 64.121 C 338.802 64.085,338.521 64.056,337.833 64.056 C 337.146 64.056,336.865 64.085,337.208 64.121 M363.569 66.833 C 363.569 68.438,363.594 69.094,363.624 68.292 C 363.655 67.490,363.655 66.177,363.624 65.375 C 363.594 64.573,363.569 65.229,363.569 66.833 M349.000 64.917 C 349.311 65.237,349.603 65.500,349.649 65.500 C 349.695 65.500,349.478 65.237,349.167 64.917 C 348.856 64.596,348.564 64.333,348.518 64.333 C 348.472 64.333,348.689 64.596,349.000 64.917 M326.333 66.750 C 326.831 67.254,327.276 67.667,327.322 67.667 C 327.368 67.667,326.998 67.254,326.500 66.750 C 326.002 66.246,325.557 65.833,325.511 65.833 C 325.466 65.833,325.835 66.246,326.333 66.750 M267.578 67.042 L 266.583 68.083 267.625 67.089 C 268.593 66.164,268.743 66.000,268.620 66.000 C 268.594 66.000,268.125 66.469,267.578 67.042 M348.991 66.625 L 348.417 67.250 349.042 66.676 C 349.623 66.141,349.743 66.000,349.616 66.000 C 349.588 66.000,349.307 66.281,348.991 66.625 M257.042 71.121 C 257.385 71.157,257.948 71.157,258.292 71.121 C 258.635 71.085,258.354 71.056,257.667 71.056 C 256.979 71.056,256.698 71.085,257.042 71.121 M296.796 71.122 C 297.188 71.157,297.788 71.157,298.129 71.121 C 298.471 71.085,298.150 71.057,297.417 71.057 C 296.683 71.058,296.404 71.087,296.796 71.122 M337.129 71.122 C 337.521 71.157,338.121 71.157,338.463 71.121 C 338.804 71.085,338.483 71.057,337.750 71.057 C 337.017 71.058,336.737 71.087,337.129 71.122 " stroke="none" fill="#04f7c2" fill-rule="evenodd"></path><path id="path1" d="M362.611 22.944 C 362.375 23.180,362.546 23.601,363.937 26.216 C 365.891 29.888,365.245 29.500,369.401 29.503 C 371.335 29.504,373.011 29.565,373.126 29.638 C 373.292 29.743,373.326 33.245,373.292 46.594 L 373.250 63.417 368.680 63.461 C 365.650 63.491,364.036 63.568,363.889 63.690 C 363.485 64.025,363.576 69.773,363.989 69.994 C 364.436 70.233,390.231 70.233,390.678 69.994 C 391.072 69.783,391.182 64.082,390.800 63.700 C 390.654 63.554,389.374 63.500,386.083 63.500 C 382.793 63.500,381.512 63.446,381.367 63.300 C 381.213 63.147,381.167 58.448,381.167 43.167 C 381.167 27.885,381.120 23.187,380.967 23.033 C 380.749 22.816,362.827 22.729,362.611 22.944 M255.065 36.093 C 253.669 36.347,251.970 37.082,250.812 37.932 C 249.873 38.622,249.813 38.602,249.582 37.529 L 249.415 36.750 245.999 36.703 C 244.120 36.677,242.415 36.697,242.208 36.748 L 241.833 36.840 241.833 59.925 C 241.833 80.056,241.865 83.022,242.078 83.104 C 242.212 83.156,242.890 82.928,243.584 82.599 C 244.278 82.270,244.880 82.000,244.922 82.000 C 244.986 82.000,246.160 81.459,248.806 80.211 C 249.636 79.819,249.667 79.588,249.667 73.739 C 249.667 67.681,249.589 67.979,250.917 68.930 C 256.346 72.816,264.928 71.082,269.084 65.258 C 273.416 59.187,273.578 48.087,269.425 41.848 C 266.405 37.309,260.775 35.053,255.065 36.093 M294.833 36.032 C 286.327 37.224,281.448 43.563,281.453 53.417 C 281.457 62.152,285.329 68.205,292.205 70.226 C 298.175 71.980,304.334 70.684,308.542 66.786 C 309.612 65.795,309.613 65.797,307.302 63.333 C 304.971 60.848,305.149 60.918,303.788 61.967 C 301.458 63.764,300.546 64.069,297.500 64.068 L 295.250 64.067 293.955 63.428 C 291.675 62.301,289.449 59.234,289.426 57.183 L 289.417 56.417 300.548 56.333 C 310.034 56.262,311.701 56.214,311.828 56.008 C 312.319 55.214,312.222 49.399,311.677 46.969 C 309.928 39.166,303.279 34.848,294.833 36.032 M335.083 36.036 C 326.781 37.118,321.686 43.669,321.670 53.280 C 321.658 60.833,324.605 66.512,329.950 69.236 C 335.917 72.277,343.837 71.303,348.603 66.944 C 349.956 65.706,350.021 65.933,347.569 63.364 C 345.166 60.847,345.306 60.900,343.983 62.001 C 342.017 63.637,340.770 64.063,337.917 64.075 C 333.668 64.092,330.985 62.022,329.751 57.777 C 329.295 56.209,328.335 56.333,340.850 56.333 L 351.826 56.333 352.097 55.919 C 352.582 55.180,352.352 48.417,351.770 46.272 C 349.762 38.870,343.379 34.954,335.083 36.036 M300.366 43.146 C 303.117 44.416,305.710 49.567,303.776 49.920 C 302.993 50.063,289.549 49.938,289.397 49.786 C 289.192 49.581,289.612 47.881,290.143 46.765 C 291.136 44.677,292.759 43.364,295.083 42.772 C 296.012 42.535,299.591 42.788,300.366 43.146 M340.706 43.208 C 343.264 44.380,345.837 49.230,344.225 49.843 C 343.596 50.082,329.912 49.979,329.666 49.733 C 329.170 49.236,330.580 45.972,331.846 44.686 C 333.789 42.712,338.066 41.999,340.706 43.208 M260.032 43.833 C 261.222 44.413,261.958 45.090,262.870 46.440 C 265.013 49.611,265.081 57.079,262.997 60.333 C 260.457 64.300,254.189 64.847,250.564 61.420 L 249.667 60.571 249.667 53.338 L 249.667 46.105 250.519 45.283 C 252.715 43.167,257.249 42.476,260.032 43.833 " stroke="none" fill="#f9f9fa" fill-rule="evenodd"></path></g></svg>