<svg id="svg" version="1.1" xmlns="http://www.w3.org/2000/svg" xmlns:xlink="http://www.w3.org/1999/xlink" width="400" height="376.47058823529414" viewBox="0, 0, 400,376.47058823529414"><g id="svgg"><path id="path0" d="M73.823 107.907 C 73.305 108.205,71.695 108.985,70.245 109.641 C 67.760 110.765,66.093 111.535,59.342 114.676 C 57.800 115.393,56.359 116.315,56.141 116.723 C 55.477 117.964,55.595 238.202,56.261 238.755 C 56.626 239.058,59.699 239.155,66.713 239.084 L 76.648 238.983 76.847 209.793 C 77.085 175.047,77.136 174.672,82.408 169.036 C 90.461 160.427,107.920 161.723,113.920 171.375 C 116.971 176.284,117.121 178.109,117.130 210.406 C 117.136 233.607,117.225 238.398,117.655 238.755 C 118.020 239.058,121.092 239.155,128.107 239.084 L 138.041 238.983 138.146 207.156 C 138.257 172.942,138.202 171.704,136.261 165.348 C 133.235 155.435,126.196 148.225,116.573 145.179 C 109.002 142.783,96.590 142.659,91.149 144.924 C 90.631 145.139,89.275 145.693,88.136 146.154 C 85.556 147.198,82.494 149.137,80.044 151.279 C 76.637 154.257,76.847 155.703,76.841 129.284 L 76.836 107.345 75.800 107.355 C 75.231 107.360,74.341 107.609,73.823 107.907 M172.316 150.613 C 165.198 151.950,160.211 160.158,161.957 167.661 C 165.623 183.417,189.538 181.440,190.503 165.301 C 191.080 155.654,182.475 148.704,172.316 150.613 M228.625 150.612 C 221.408 151.793,216.388 160.038,218.217 167.707 C 222.085 183.919,246.746 181.056,246.746 164.396 C 246.746 155.112,238.670 148.969,228.625 150.612 M172.505 213.497 C 164.254 215.107,159.207 225.523,162.853 233.417 C 166.282 240.840,174.977 243.811,182.457 240.115 C 197.824 232.522,189.473 210.186,172.505 213.497 M228.625 213.516 C 219.323 215.610,214.753 227.193,220.095 235.139 C 228.112 247.065,246.753 241.634,246.768 227.367 C 246.778 218.368,237.736 211.465,228.625 213.516 " stroke="none" fill="#04f4c1" fill-rule="evenodd"></path><path id="path1" d="M307.298 143.868 C 303.545 144.624,298.583 146.885,295.732 149.138 C 292.925 151.356,292.279 151.227,292.279 148.445 C 292.279 145.240,292.725 145.359,281.121 145.474 L 270.998 145.574 270.903 210.640 L 270.808 275.706 271.709 275.706 C 272.205 275.706,273.811 275.113,275.278 274.388 C 276.745 273.663,278.019 273.070,278.109 273.070 C 278.199 273.070,279.941 272.289,281.980 271.334 C 284.019 270.379,286.875 269.048,288.326 268.376 C 292.401 266.489,292.064 268.073,292.279 249.785 C 292.488 231.965,292.340 232.735,295.146 234.938 C 306.980 244.227,325.649 243.783,338.987 233.895 C 353.202 223.358,359.651 200.356,354.930 177.035 C 350.096 153.154,330.154 139.267,307.298 143.868 M319.197 164.246 C 332.455 168.906,338.729 188.485,332.737 206.495 C 327.339 222.716,305.499 226.684,293.672 213.593 L 292.279 212.051 292.279 192.447 C 292.279 170.339,292.083 171.839,295.333 168.997 C 301.143 163.914,312.066 161.740,319.197 164.246 " stroke="none" fill="#f9f9fa" fill-rule="evenodd"></path></g></svg>