<?xml version="1.0" encoding="utf-8"?>
<svg viewBox="67.395 220.773 376.014 60.589" xmlns="http://www.w3.org/2000/svg">
  <path id="path0" d="M 97.76 23.859 C 100.218 23.885 104.193 23.885 106.593 23.859 C 108.993 23.833 106.981 23.811 102.123 23.811 C 97.265 23.811 95.301 23.833 97.76 23.859 M 111.34 24.1 C 111.493 24.254 111.54 28.952 111.54 44.234 C 111.54 64.485 111.542 64.579 112.115 64.562 C 112.211 64.559 112.158 64.48 111.998 64.387 C 111.723 64.227 111.706 63.094 111.706 44.322 C 111.706 24.787 111.69 23.9 111.322 23.9 C 111.2 23.9 111.206 23.967 111.34 24.1 M -249.96 25.332 C -251.473 26.029 -253.024 26.737 -253.407 26.906 C -253.79 27.074 -254.184 27.362 -254.282 27.545 C -254.552 28.051 -254.531 70.763 -254.26 71.034 C -254.034 71.26 -247.192 71.323 -246.844 71.102 C -246.694 71.006 -246.631 68.348 -246.589 60.313 C -246.527 48.531 -246.564 48.948 -245.418 47.132 C -242.876 43.106 -235.442 43.349 -233.454 47.524 C -232.672 49.168 -232.639 49.678 -232.633 60.453 C -232.629 67.11 -232.568 70.7 -232.454 70.911 C -232.281 71.236 -225.83 71.429 -225.057 71.133 C -224.658 70.979 -224.66 49.236 -225.06 46.908 C -225.577 43.901 -226.523 41.964 -228.363 40.15 C -232.472 36.1 -240.842 35.785 -245.394 39.508 C -245.989 39.995 -246.366 40.171 -246.498 40.025 C -246.519 40.002 -246.575 36.422 -246.623 32.069 C -246.699 25.212 -246.744 24.149 -246.96 24.109 C -247.098 24.084 -248.448 24.634 -249.96 25.332 M -127.294 24.795 C -128.165 25.193 -129.535 25.829 -130.339 26.209 C -131.142 26.589 -131.843 26.9 -131.896 26.9 C -131.949 26.9 -132.21 27.055 -132.476 27.245 L -132.96 27.59 L -132.96 49.212 C -132.96 65.807 -132.914 70.88 -132.76 71.034 C -132.477 71.317 -125.61 71.317 -125.327 71.034 C -125.178 70.885 -125.127 69.123 -125.127 64.135 L -125.127 57.435 L -122.899 55.335 C -121.673 54.179 -120.587 53.234 -120.484 53.234 C -120.217 53.234 -119.748 54.039 -117.716 57.984 C -116.724 59.909 -115.389 62.496 -114.749 63.734 C -114.109 64.971 -113.023 67.071 -112.337 68.4 C -111.65 69.729 -110.97 70.911 -110.826 71.025 C -110.409 71.356 -102.817 71.321 -102.689 70.988 C -102.637 70.853 -103.362 69.259 -104.3 67.446 C -105.237 65.634 -106.51 63.175 -107.127 61.984 C -107.745 60.792 -108.85 58.654 -109.583 57.234 C -110.316 55.813 -111.713 53.106 -112.688 51.217 C -113.663 49.329 -114.46 47.668 -114.46 47.526 C -114.46 47.383 -112.323 45.225 -109.71 42.731 C -107.098 40.236 -104.96 38.091 -104.96 37.964 C -104.96 37.774 -105.726 37.734 -109.371 37.734 L -113.781 37.734 L -119.224 43.109 C -122.218 46.065 -124.752 48.484 -124.855 48.484 C -124.993 48.484 -125.067 45.202 -125.13 36.317 C -125.177 29.625 -125.233 24.132 -125.255 24.109 C -125.376 23.979 -125.874 24.147 -127.294 24.795 M 93.706 26.4 C 93.893 26.767 94.084 27.067 94.13 27.067 C 94.176 27.067 94.06 26.767 93.873 26.4 C 93.686 26.034 93.495 25.734 93.45 25.734 C 93.404 25.734 93.519 26.034 93.706 26.4 M 95.206 29.234 C 95.393 29.6 95.584 29.9 95.63 29.9 C 95.676 29.9 95.56 29.6 95.373 29.234 C 95.186 28.867 94.995 28.567 94.95 28.567 C 94.904 28.567 95.019 28.867 95.206 29.234 M 99.777 30.692 C 102.001 30.723 103.344 30.807 103.485 30.924 C 103.625 31.041 103.706 31.046 103.706 30.939 C 103.706 30.614 103.155 30.567 99.734 30.605 L 96.29 30.643 L 99.777 30.692 M -12.585 36.855 C -12.242 36.891 -11.679 36.891 -11.335 36.855 C -10.992 36.819 -11.273 36.79 -11.96 36.79 C -12.648 36.79 -12.929 36.819 -12.585 36.855 M 27.169 36.856 C 27.561 36.891 28.161 36.891 28.502 36.855 C 28.844 36.819 28.523 36.79 27.79 36.791 C 27.056 36.791 26.777 36.821 27.169 36.856 M 67.331 36.856 C 67.721 36.891 68.358 36.891 68.748 36.856 C 69.138 36.821 68.819 36.792 68.04 36.792 C 67.26 36.792 66.942 36.821 67.331 36.856 M -201.794 37.156 C -205.045 37.58 -207.145 38.255 -210.773 40.042 C -212.125 40.708 -212.129 40.77 -211.03 43.741 C -209.724 47.275 -209.96 47.128 -207.534 45.914 C -203.871 44.081 -201.861 43.625 -198.208 43.797 C -194.342 43.98 -192.806 45.496 -192.66 49.275 L -192.59 51.067 L -193.02 51.067 C -193.256 51.067 -193.695 50.963 -193.996 50.837 C -194.981 50.423 -195.821 50.198 -196.941 50.048 C -200.543 49.565 -200.786 49.549 -201.903 49.716 C -204.896 50.165 -205.341 50.247 -205.629 50.402 C -205.799 50.493 -206.068 50.567 -206.225 50.567 C -206.383 50.567 -207.307 50.956 -208.278 51.432 C -217.903 56.149 -215.459 70.432 -204.794 71.802 C -204.381 71.855 -203.528 71.975 -202.897 72.068 C -201.784 72.233 -201.114 72.186 -198.294 71.744 C -197.14 71.564 -195.541 70.883 -194.075 69.95 C -192.781 69.126 -192.627 69.145 -192.627 70.127 C -192.627 71.234 -192.629 71.234 -188.766 71.234 C -185.456 71.234 -185.297 71.219 -185.124 70.894 C -184.783 70.257 -185.002 46.743 -185.363 45.317 C -186.995 38.856 -192.786 35.98 -201.794 37.156 M -160.877 37.145 C -167.925 38.204 -172.525 43.476 -173.47 51.575 C -175.006 64.748 -167.236 73.57 -155.544 71.929 C -149.916 71.139 -145.04 67.175 -144.211 62.717 L -144.099 62.118 L -145.155 61.744 C -146.462 61.282 -147.088 61.078 -149.26 60.404 C -151.241 59.79 -151.197 59.776 -151.982 61.249 C -154.474 65.925 -161.59 65.884 -164.194 61.18 C -166.734 56.592 -166.046 49.042 -162.813 46.017 C -161.346 44.645 -160.42 44.329 -157.877 44.329 C -154.875 44.33 -153.349 45.154 -152.059 47.47 C -151.439 48.584 -151.48 48.585 -147.926 47.402 C -143.695 45.994 -143.93 46.25 -144.954 44.163 C -147.653 38.659 -153.579 36.047 -160.877 37.145 M -27.919 60.992 C -27.961 84.342 -27.96 84.4 -27.395 84.4 C -27.304 84.4 -27.357 84.307 -27.512 84.192 C -27.775 83.998 -27.797 82.373 -27.836 60.984 L -27.878 37.984 L -27.919 60.992 M -79.812 39.645 C -82.071 40.477 -83.289 42.204 -83.292 44.582 C -83.3 51.008 -73.447 51.41 -72.849 45.009 C -72.505 41.32 -76.339 38.367 -79.812 39.645 M -55.427 39.659 C -57.568 40.332 -59.119 42.663 -58.916 44.901 C -58.393 50.67 -50.149 51.409 -48.539 45.831 C -47.411 41.925 -51.366 38.382 -55.427 39.659 M -2.96 39.786 C -2.96 39.815 -2.717 40.058 -2.419 40.327 L -1.877 40.817 L -2.367 40.275 C -2.823 39.77 -2.96 39.657 -2.96 39.786 M 38.29 40.9 C 38.834 41.45 39.317 41.9 39.363 41.9 C 39.408 41.9 39.001 41.45 38.456 40.9 C 37.912 40.35 37.429 39.9 37.383 39.9 C 37.338 39.9 37.745 40.35 38.29 40.9 M 56.618 41.275 L 55.623 42.317 L 56.665 41.322 C 57.632 40.398 57.783 40.234 57.659 40.234 C 57.634 40.234 57.165 40.702 56.618 41.275 M 78.206 40.452 C 78.206 40.481 78.45 40.725 78.748 40.994 L 79.29 41.484 L 78.8 40.942 C 78.344 40.437 78.206 40.324 78.206 40.452 M 16.279 41.275 L 15.79 41.817 L 16.331 41.327 C 16.836 40.871 16.95 40.734 16.821 40.734 C 16.792 40.734 16.548 40.977 16.279 41.275 M -1.794 40.952 C -1.794 40.981 -1.55 41.225 -1.252 41.494 L -0.71 41.984 L -1.2 41.442 C -1.656 40.937 -1.794 40.824 -1.794 40.952 M 25.915 43.849 C 26.075 43.89 26.338 43.89 26.498 43.849 C 26.658 43.807 26.527 43.772 26.206 43.772 C 25.885 43.772 25.754 43.807 25.915 43.849 M 30.206 44.15 C 30.436 44.281 30.698 44.389 30.79 44.389 C 30.881 44.389 30.769 44.281 30.54 44.15 C 30.311 44.019 30.048 43.912 29.956 43.912 C 29.865 43.912 29.977 44.019 30.206 44.15 M 13.486 45.325 C 13.095 46.146 13.15 46.286 13.559 45.51 C 13.745 45.157 13.868 44.839 13.832 44.803 C 13.796 44.767 13.64 45.002 13.486 45.325 M 53.733 45.324 C 53.454 45.937 53.507 46.068 53.809 45.511 C 53.95 45.25 54.035 45.006 53.996 44.968 C 53.958 44.93 53.84 45.09 53.733 45.324 M -17.919 45.399 C -18.217 45.58 -18.46 45.765 -18.46 45.809 C -18.46 45.853 -18.198 45.734 -17.877 45.545 C -17.556 45.356 -17.294 45.171 -17.294 45.134 C -17.294 45.027 -17.346 45.05 -17.919 45.399 M 21.948 45.775 L 21.29 46.484 L 21.998 45.825 C 22.388 45.462 22.706 45.144 22.706 45.117 C 22.706 44.99 22.561 45.117 21.948 45.775 M 72.373 45.119 C 72.373 45.148 72.617 45.392 72.915 45.661 L 73.456 46.15 L 72.967 45.609 C 72.511 45.104 72.373 44.99 72.373 45.119 M -8.044 46.067 C -7.686 46.434 -7.355 46.734 -7.309 46.734 C -7.264 46.734 -7.519 46.434 -7.877 46.067 C -8.235 45.7 -8.565 45.4 -8.611 45.4 C -8.657 45.4 -8.402 45.7 -8.044 46.067 M -19.303 46.525 L -19.877 47.15 L -19.252 46.576 C -18.908 46.26 -18.627 45.979 -18.627 45.951 C -18.627 45.824 -18.768 45.944 -19.303 46.525 M 21.082 46.775 C 20.846 47.073 20.515 47.734 20.601 47.734 C 20.641 47.734 20.828 47.471 21.018 47.15 C 21.362 46.567 21.393 46.382 21.082 46.775 M 74.218 47.65 C 74.218 47.742 74.325 48.005 74.456 48.234 C 74.587 48.463 74.695 48.575 74.695 48.484 C 74.695 48.392 74.587 48.13 74.456 47.9 C 74.325 47.671 74.218 47.559 74.218 47.65 M 74.865 50.188 C 74.819 50.575 74.845 50.828 74.923 50.751 C 75 50.673 75.038 50.356 75.006 50.047 C 74.949 49.498 74.946 49.501 74.865 50.188 M 42.415 50.317 C 42.417 50.684 42.451 50.814 42.491 50.607 C 42.531 50.399 42.529 50.099 42.488 49.94 C 42.446 49.781 42.413 49.95 42.415 50.317 M 19.706 50.4 C 19.706 50.675 19.768 50.9 19.844 50.9 C 19.92 50.9 19.949 50.675 19.909 50.4 C 19.868 50.125 19.806 49.9 19.771 49.9 C 19.735 49.9 19.706 50.125 19.706 50.4 M 82.775 53.234 C 82.775 54.838 82.8 55.494 82.83 54.692 C 82.861 53.89 82.861 52.577 82.83 51.775 C 82.8 50.973 82.775 51.63 82.775 53.234 M 23.665 51.025 C 25.613 51.052 28.8 51.052 30.748 51.025 C 32.696 50.998 31.102 50.977 27.206 50.977 C 23.311 50.977 21.717 50.998 23.665 51.025 M 52.078 51.4 C 52.078 51.721 52.113 51.852 52.155 51.692 C 52.196 51.532 52.196 51.269 52.155 51.109 C 52.113 50.948 52.078 51.079 52.078 51.4 M 64.009 51.025 C 65.963 51.052 69.113 51.052 71.009 51.025 C 72.905 50.998 71.306 50.977 67.456 50.977 C 63.606 50.977 62.055 50.999 64.009 51.025 M -5.255 52.234 C -5.255 52.554 -5.221 52.686 -5.179 52.525 C -5.137 52.365 -5.137 52.102 -5.179 51.942 C -5.221 51.782 -5.255 51.913 -5.255 52.234 M 11.756 52.567 C 11.756 53.071 11.788 53.277 11.826 53.025 C 11.864 52.773 11.864 52.361 11.826 52.109 C 11.788 51.857 11.756 52.063 11.756 52.567 M 2.76 52.9 C 2.76 53.496 2.79 53.74 2.827 53.442 C 2.864 53.144 2.864 52.657 2.827 52.359 C 2.79 52.061 2.76 52.304 2.76 52.9 M 51.926 54.4 C 51.926 54.996 51.957 55.24 51.994 54.942 C 52.031 54.644 52.031 54.157 51.994 53.859 C 51.957 53.561 51.926 53.804 51.926 54.4 M 2.761 56.15 C 2.762 56.792 2.792 57.034 2.828 56.688 C 2.864 56.342 2.863 55.817 2.827 55.522 C 2.79 55.226 2.76 55.509 2.761 56.15 M 11.758 56.317 C 11.759 56.867 11.79 57.072 11.827 56.772 C 11.864 56.473 11.863 56.023 11.825 55.772 C 11.787 55.522 11.757 55.767 11.758 56.317 M 42.4 56.263 C 42.385 56.601 42.255 56.994 42.111 57.138 C 41.967 57.282 41.927 57.4 42.022 57.4 C 42.311 57.4 42.564 56.749 42.493 56.184 C 42.427 55.658 42.426 55.659 42.4 56.263 M -196.377 56.561 C -192.459 57.528 -192.627 57.375 -192.627 59.994 L -192.627 62.036 L -193.488 62.81 C -197.235 66.179 -204.429 66.089 -206.273 62.649 C -207.58 60.21 -205.94 57.413 -202.794 56.714 C -202.473 56.643 -201.948 56.509 -201.627 56.417 C -200.876 56.2 -197.458 56.294 -196.377 56.561 M 52.082 57.484 C 52.084 57.85 52.118 57.981 52.158 57.773 C 52.197 57.566 52.196 57.266 52.154 57.107 C 52.112 56.947 52.08 57.117 52.082 57.484 M 19.772 57.636 C 19.722 57.766 19.713 58.085 19.752 58.345 C 19.812 58.743 19.827 58.719 19.848 58.193 L 19.873 57.569 L 30.831 57.525 L 41.79 57.481 L 30.826 57.441 C 21.499 57.406 19.849 57.436 19.772 57.636 M 60.073 57.6 C 59.963 57.71 59.878 57.917 59.885 58.059 C 59.893 58.237 59.937 58.214 60.026 57.984 C 60.154 57.656 60.351 57.649 71.14 57.565 L 82.123 57.48 L 71.198 57.44 C 62.878 57.41 60.225 57.448 60.073 57.6 M -19.294 62.317 C -18.983 62.638 -18.691 62.9 -18.645 62.9 C -18.599 62.9 -18.816 62.638 -19.127 62.317 C -19.438 61.996 -19.73 61.734 -19.776 61.734 C -19.822 61.734 -19.605 61.996 -19.294 62.317 M -80.377 62.293 C -83.587 63.795 -84.325 68.064 -81.809 70.578 C -77.102 75.281 -69.866 68.809 -74.05 63.639 C -75.401 61.972 -78.348 61.344 -80.377 62.293 M -55.957 62.278 C -59.493 64.042 -59.959 68.867 -56.811 71.125 C -51.635 74.836 -45.445 67.993 -49.843 63.422 C -51.315 61.893 -54.13 61.366 -55.957 62.278 M -8.035 62.847 C -8.58 63.36 -8.88 63.701 -8.702 63.603 C -8.385 63.431 -6.815 61.894 -6.967 61.906 C -7.009 61.91 -7.49 62.333 -8.035 62.847 M 34.694 62.525 L 34.29 62.984 L 34.706 62.63 C 34.936 62.435 35.235 62.235 35.373 62.185 C 35.587 62.106 35.585 62.091 35.36 62.08 C 35.216 62.073 34.916 62.273 34.694 62.525 M 75.54 62.183 C 75.677 62.232 76.39 62.845 77.123 63.544 L 78.456 64.817 L 77.127 63.442 C 76.396 62.686 75.683 62.073 75.544 62.08 C 75.321 62.092 75.32 62.104 75.54 62.183 M 21.54 62.286 C 21.54 62.315 21.783 62.558 22.081 62.827 L 22.623 63.317 L 22.133 62.775 C 21.677 62.27 21.54 62.157 21.54 62.286 M 0.9 63.824 C 0.621 64.437 0.674 64.568 0.976 64.011 C 1.117 63.75 1.201 63.506 1.163 63.468 C 1.125 63.43 1.007 63.59 0.9 63.824 M 37.04 63.78 C 37.04 63.805 37.621 64.386 38.331 65.071 L 39.623 66.317 L 38.377 65.025 C 37.22 63.826 37.04 63.658 37.04 63.78 M -13.672 64.687 C -13.377 64.724 -12.852 64.725 -12.506 64.689 C -12.16 64.653 -12.402 64.622 -13.044 64.622 C -13.685 64.621 -13.968 64.65 -13.672 64.687 M 121.165 64.733 C 121.529 65.142 121.454 70.836 121.081 71.054 C 120.921 71.147 120.868 71.226 120.965 71.229 C 121.462 71.243 121.54 70.792 121.54 67.887 C 121.54 65.277 121.506 64.916 121.248 64.72 C 121 64.533 120.987 64.535 121.165 64.733 M 27.248 65.188 C 27.592 65.224 28.154 65.224 28.498 65.188 C 28.842 65.152 28.561 65.123 27.873 65.123 C 27.186 65.123 26.904 65.152 27.248 65.188 M 67.581 65.188 C 67.925 65.224 68.488 65.224 68.831 65.188 C 69.175 65.152 68.894 65.123 68.206 65.123 C 67.519 65.123 67.238 65.152 67.581 65.188 M 93.942 67.9 C 93.942 69.505 93.967 70.161 93.997 69.359 C 94.028 68.557 94.028 67.244 93.997 66.442 C 93.967 65.64 93.942 66.296 93.942 67.9 M 79.373 65.984 C 79.684 66.304 79.976 66.567 80.022 66.567 C 80.068 66.567 79.851 66.304 79.54 65.984 C 79.229 65.663 78.937 65.4 78.891 65.4 C 78.845 65.4 79.062 65.663 79.373 65.984 M 56.706 67.817 C 57.204 68.321 57.649 68.734 57.695 68.734 C 57.741 68.734 57.371 68.321 56.873 67.817 C 56.375 67.313 55.93 66.9 55.884 66.9 C 55.839 66.9 56.208 67.313 56.706 67.817 M -2.049 68.109 L -3.044 69.15 L -2.002 68.156 C -1.034 67.231 -0.884 67.067 -1.007 67.067 C -1.033 67.067 -1.502 67.536 -2.049 68.109 M 79.364 67.692 L 78.79 68.317 L 79.415 67.743 C 79.996 67.208 80.116 67.067 79.989 67.067 C 79.961 67.067 79.68 67.348 79.364 67.692 M -12.585 72.188 C -12.242 72.224 -11.679 72.224 -11.335 72.188 C -10.992 72.152 -11.273 72.123 -11.96 72.123 C -12.648 72.123 -12.929 72.152 -12.585 72.188 M 27.169 72.189 C 27.561 72.224 28.161 72.224 28.502 72.188 C 28.844 72.152 28.523 72.124 27.79 72.124 C 27.056 72.125 26.777 72.154 27.169 72.189 M 67.502 72.189 C 67.894 72.224 68.494 72.224 68.836 72.188 C 69.177 72.152 68.856 72.124 68.123 72.124 C 67.39 72.125 67.11 72.154 67.502 72.189" stroke="none" fill-rule="evenodd" style="fill: rgb(0, 255, 197);" transform="matrix(1, 0, 0, 1, 321.869232, 196.961517)"/>
  <path id="path1" d="M 92.984 24.011 C 92.748 24.247 92.919 24.668 94.31 27.283 C 96.264 30.955 95.618 30.567 99.774 30.57 C 101.708 30.571 103.384 30.632 103.499 30.705 C 103.665 30.81 103.699 34.312 103.665 47.661 L 103.623 64.484 L 99.053 64.528 C 96.023 64.558 94.409 64.635 94.262 64.757 C 93.858 65.092 93.949 70.84 94.362 71.061 C 94.809 71.3 120.604 71.3 121.051 71.061 C 121.445 70.85 121.555 65.149 121.173 64.767 C 121.027 64.621 119.747 64.567 116.456 64.567 C 113.166 64.567 111.885 64.513 111.74 64.367 C 111.586 64.214 111.54 59.515 111.54 44.234 C 111.54 28.952 111.493 24.254 111.34 24.1 C 111.122 23.883 93.2 23.796 92.984 24.011 M -14.562 37.16 C -15.958 37.414 -17.657 38.149 -18.815 38.999 C -19.754 39.689 -19.814 39.669 -20.045 38.596 L -20.212 37.817 L -23.628 37.77 C -25.507 37.744 -27.212 37.764 -27.419 37.815 L -27.794 37.907 L -27.794 60.992 C -27.794 81.123 -27.762 84.089 -27.549 84.171 C -27.415 84.223 -26.737 83.995 -26.043 83.666 C -25.349 83.337 -24.747 83.067 -24.705 83.067 C -24.641 83.067 -23.467 82.526 -20.821 81.278 C -19.991 80.886 -19.96 80.655 -19.96 74.806 C -19.96 68.748 -20.038 69.046 -18.71 69.997 C -13.281 73.883 -4.699 72.149 -0.543 66.325 C 3.789 60.254 3.951 49.154 -0.202 42.915 C -3.222 38.376 -8.852 36.12 -14.562 37.16 M 25.206 37.099 C 16.7 38.291 11.821 44.63 11.826 54.484 C 11.83 63.219 15.702 69.272 22.578 71.293 C 28.548 73.047 34.707 71.751 38.915 67.853 C 39.985 66.862 39.986 66.864 37.675 64.4 C 35.344 61.915 35.522 61.985 34.161 63.034 C 31.831 64.831 30.919 65.136 27.873 65.135 L 25.623 65.134 L 24.328 64.495 C 22.048 63.368 19.822 60.301 19.799 58.25 L 19.79 57.484 L 30.921 57.4 C 40.407 57.329 42.074 57.281 42.201 57.075 C 42.692 56.281 42.595 50.466 42.05 48.036 C 40.301 40.233 33.652 35.915 25.206 37.099 M 65.456 37.103 C 57.154 38.185 52.059 44.736 52.043 54.347 C 52.031 61.9 54.978 67.579 60.323 70.303 C 66.29 73.344 74.21 72.37 78.976 68.011 C 80.329 66.773 80.394 67 77.942 64.431 C 75.539 61.914 75.679 61.967 74.356 63.068 C 72.39 64.704 71.143 65.13 68.29 65.142 C 64.041 65.159 61.358 63.089 60.124 58.844 C 59.668 57.276 58.708 57.4 71.223 57.4 L 82.199 57.4 L 82.47 56.986 C 82.955 56.247 82.725 49.484 82.143 47.339 C 80.135 39.937 73.752 36.021 65.456 37.103 M 30.739 44.213 C 33.49 45.483 36.083 50.634 34.149 50.987 C 33.366 51.13 19.922 51.005 19.77 50.853 C 19.565 50.648 19.985 48.948 20.516 47.832 C 21.509 45.744 23.132 44.431 25.456 43.839 C 26.385 43.602 29.964 43.855 30.739 44.213 M 71.079 44.275 C 73.637 45.447 76.21 50.297 74.598 50.91 C 73.969 51.149 60.285 51.046 60.039 50.8 C 59.543 50.303 60.953 47.039 62.219 45.753 C 64.162 43.779 68.439 43.066 71.079 44.275 M -9.595 44.9 C -8.405 45.48 -7.669 46.157 -6.757 47.507 C -4.614 50.678 -4.546 58.146 -6.63 61.4 C -9.17 65.367 -15.438 65.914 -19.063 62.487 L -19.96 61.638 L -19.96 54.405 L -19.96 47.172 L -19.108 46.35 C -16.912 44.234 -12.378 43.543 -9.595 44.9" stroke="none" fill-rule="evenodd" style="fill: rgb(27, 20, 100);" transform="matrix(1, 0, 0, 1, 321.869232, 196.961517)"/>
</svg>